<svg xmlns="http://www.w3.org/2000/svg" viewBox="0 0 128 128">
  <defs>
    <linearGradient id="bg" x1="0" y1="0" x2="1" y2="1">
      <stop offset="0%" stop-color="#4b1d7b"/>
      <stop offset="100%" stop-color="#7c2dca"/>
    </linearGradient>
    <linearGradient id="card1" x1="0" y1="0" x2="1" y2="1">
      <stop offset="0%" stop-color="#30bdf1"/>
      <stop offset="100%" stop-color="#44c4ff"/>
    </linearGradient>
    <linearGradient id="card2" x1="0" y1="0" x2="1" y2="1">
      <stop offset="0%" stop-color="#f59e0b"/>
      <stop offset="100%" stop-color="#fbbf24"/>
    </linearGradient>
    <linearGradient id="card3" x1="0" y1="0" x2="1" y2="1">
      <stop offset="0%" stop-color="#ef4444"/>
      <stop offset="100%" stop-color="#f97316"/>
    </linearGradient>
    <linearGradient id="card4" x1="0" y1="0" x2="1" y2="1">
      <stop offset="0%" stop-color="#a855f7"/>
      <stop offset="100%" stop-color="#e879f9"/>
    </linearGradient>
  </defs>
  <rect width="128" height="128" rx="24" fill="url(#bg)"/>
  <path d="M32 40h64a8 8 0 0 1 8 8v40a8 8 0 0 1-8 8H32a8 8 0 0 1-8-8V48a8 8 0 0 1 8-8z" fill="#2d0f54" opacity="0.95"/>
  <path d="M36 44h60a4 4 0 0 1 4 4v38a4 4 0 0 1-4 4H36a4 4 0 0 1-4-4V48a4 4 0 0 1 4-4z" fill="#3c1976"/>
  <rect x="42" y="54" width="44" height="14" rx="4" fill="url(#card1)"/>
  <rect x="42" y="74" width="44" height="14" rx="4" fill="url(#card2)"/>
  <rect x="42" y="91" width="40" height="10" rx="3" fill="url(#card3)"/>
  <circle cx="92" cy="64" r="10" fill="url(#card4)" opacity="0.95"/>
  <path d="M44 52h44v2H44z" fill="#ffffff" opacity="0.25"/>
</svg>
